<mxfile host="Electron" modified="2024-05-02T10:30:35.657Z" agent="Mozilla/5.0 (Macintosh; Intel Mac OS X 10_15_7) AppleWebKit/537.36 (KHTML, like Gecko) draw.io/24.2.5 Chrome/120.0.6099.109 Electron/28.1.0 Safari/537.36" etag="pHKsM7LZNY0nnfmL8txK" version="24.2.5" type="device">
  <diagram name="Page-1" id="1nIQndOr0USlizJHVGTK">
    <mxGraphModel dx="642" dy="538" grid="1" gridSize="10" guides="1" tooltips="1" connect="1" arrows="1" fold="1" page="0" pageScale="1" pageWidth="827" pageHeight="1169" math="0" shadow="0">
      <root>
        <mxCell id="0" />
        <mxCell id="1" parent="0" />
        <mxCell id="fRdf65A6xAK5P6ts9fCN-7" style="edgeStyle=none;curved=1;rounded=0;orthogonalLoop=1;jettySize=auto;html=1;entryX=0.5;entryY=0;entryDx=0;entryDy=0;fontSize=12;startSize=8;endSize=8;" edge="1" parent="1" source="fRdf65A6xAK5P6ts9fCN-1" target="fRdf65A6xAK5P6ts9fCN-3">
          <mxGeometry relative="1" as="geometry" />
        </mxCell>
        <mxCell id="fRdf65A6xAK5P6ts9fCN-1" value="dockerd" style="rounded=1;whiteSpace=wrap;html=1;fillColor=#dae8fc;strokeColor=#6c8ebf;" vertex="1" parent="1">
          <mxGeometry x="150" y="130" width="120" height="40" as="geometry" />
        </mxCell>
        <mxCell id="fRdf65A6xAK5P6ts9fCN-13" style="edgeStyle=none;curved=1;rounded=0;orthogonalLoop=1;jettySize=auto;html=1;entryX=0.5;entryY=0;entryDx=0;entryDy=0;fontSize=12;startSize=8;endSize=8;dashed=1;exitX=0.5;exitY=1;exitDx=0;exitDy=0;" edge="1" parent="1" source="fRdf65A6xAK5P6ts9fCN-14" target="fRdf65A6xAK5P6ts9fCN-1">
          <mxGeometry relative="1" as="geometry">
            <mxPoint x="210" y="94" as="sourcePoint" />
            <Array as="points" />
          </mxGeometry>
        </mxCell>
        <mxCell id="fRdf65A6xAK5P6ts9fCN-8" style="edgeStyle=none;curved=1;rounded=0;orthogonalLoop=1;jettySize=auto;html=1;entryX=0.5;entryY=0;entryDx=0;entryDy=0;fontSize=12;startSize=8;endSize=8;" edge="1" parent="1" source="fRdf65A6xAK5P6ts9fCN-3" target="fRdf65A6xAK5P6ts9fCN-5">
          <mxGeometry relative="1" as="geometry" />
        </mxCell>
        <mxCell id="fRdf65A6xAK5P6ts9fCN-3" value="containerd" style="rounded=1;whiteSpace=wrap;html=1;fillColor=#b1ddf0;strokeColor=#10739e;" vertex="1" parent="1">
          <mxGeometry x="150" y="203" width="120" height="41" as="geometry" />
        </mxCell>
        <mxCell id="fRdf65A6xAK5P6ts9fCN-9" style="edgeStyle=none;curved=1;rounded=0;orthogonalLoop=1;jettySize=auto;html=1;exitX=0.5;exitY=0;exitDx=0;exitDy=0;entryX=0.5;entryY=1;entryDx=0;entryDy=0;fontSize=12;startSize=8;endSize=5;dashed=1;endArrow=halfCircle;endFill=0;" edge="1" parent="1" source="fRdf65A6xAK5P6ts9fCN-4" target="fRdf65A6xAK5P6ts9fCN-5">
          <mxGeometry relative="1" as="geometry" />
        </mxCell>
        <mxCell id="fRdf65A6xAK5P6ts9fCN-4" value="runc" style="rounded=1;whiteSpace=wrap;html=1;fillColor=#eeeeee;strokeColor=#36393d;" vertex="1" parent="1">
          <mxGeometry x="150" y="333" width="120" height="35" as="geometry" />
        </mxCell>
        <mxCell id="fRdf65A6xAK5P6ts9fCN-5" value="OCI" style="rounded=1;whiteSpace=wrap;html=1;fillColor=#f5f5f5;strokeColor=#666666;dashed=1;fontColor=#333333;" vertex="1" parent="1">
          <mxGeometry x="120.5" y="276" width="179" height="26" as="geometry" />
        </mxCell>
        <mxCell id="fRdf65A6xAK5P6ts9fCN-6" value="container" style="shape=cube;whiteSpace=wrap;html=1;boundedLbl=1;backgroundOutline=1;darkOpacity=0.05;darkOpacity2=0.1;fillColor=#b0e3e6;strokeColor=#0e8088;" vertex="1" parent="1">
          <mxGeometry x="162.5" y="399" width="95" height="66" as="geometry" />
        </mxCell>
        <mxCell id="fRdf65A6xAK5P6ts9fCN-10" style="edgeStyle=none;curved=1;rounded=0;orthogonalLoop=1;jettySize=auto;html=1;exitX=0.5;exitY=1;exitDx=0;exitDy=0;entryX=0.5;entryY=0;entryDx=0;entryDy=0;entryPerimeter=0;fontSize=12;startSize=8;endSize=8;" edge="1" parent="1" source="fRdf65A6xAK5P6ts9fCN-4" target="fRdf65A6xAK5P6ts9fCN-6">
          <mxGeometry relative="1" as="geometry" />
        </mxCell>
        <mxCell id="fRdf65A6xAK5P6ts9fCN-14" value="docker CLI" style="shape=step;perimeter=stepPerimeter;whiteSpace=wrap;html=1;fixedSize=1;" vertex="1" parent="1">
          <mxGeometry x="150.75" y="51" width="118.5" height="39" as="geometry" />
        </mxCell>
        <mxCell id="fRdf65A6xAK5P6ts9fCN-21" style="edgeStyle=none;curved=1;rounded=0;orthogonalLoop=1;jettySize=auto;html=1;exitX=0.5;exitY=1;exitDx=0;exitDy=0;entryX=0.5;entryY=0;entryDx=0;entryDy=0;fontSize=12;startSize=8;endSize=8;dashed=1;" edge="1" parent="1" source="fRdf65A6xAK5P6ts9fCN-16" target="fRdf65A6xAK5P6ts9fCN-17">
          <mxGeometry relative="1" as="geometry" />
        </mxCell>
        <mxCell id="fRdf65A6xAK5P6ts9fCN-16" value="kubectl CLI" style="shape=step;perimeter=stepPerimeter;whiteSpace=wrap;html=1;fixedSize=1;" vertex="1" parent="1">
          <mxGeometry x="350" y="51" width="118.5" height="39" as="geometry" />
        </mxCell>
        <mxCell id="fRdf65A6xAK5P6ts9fCN-17" value="CRI" style="rounded=1;whiteSpace=wrap;html=1;fillColor=#f5f5f5;strokeColor=#666666;dashed=1;fontColor=#333333;" vertex="1" parent="1">
          <mxGeometry x="319.75" y="130" width="179" height="26" as="geometry" />
        </mxCell>
        <mxCell id="fRdf65A6xAK5P6ts9fCN-22" style="edgeStyle=none;curved=0;rounded=0;orthogonalLoop=1;jettySize=auto;html=1;entryX=1;entryY=0.5;entryDx=0;entryDy=0;fontSize=12;startSize=8;endSize=8;" edge="1" parent="1" source="fRdf65A6xAK5P6ts9fCN-18" target="fRdf65A6xAK5P6ts9fCN-5">
          <mxGeometry relative="1" as="geometry">
            <Array as="points">
              <mxPoint x="410" y="290" />
            </Array>
          </mxGeometry>
        </mxCell>
        <mxCell id="fRdf65A6xAK5P6ts9fCN-18" value="CRI-O" style="rounded=1;whiteSpace=wrap;html=1;fillColor=#b1ddf0;strokeColor=#10739e;" vertex="1" parent="1">
          <mxGeometry x="350" y="203" width="120" height="41" as="geometry" />
        </mxCell>
        <mxCell id="fRdf65A6xAK5P6ts9fCN-19" style="edgeStyle=none;curved=1;rounded=0;orthogonalLoop=1;jettySize=auto;html=1;exitX=0.5;exitY=0;exitDx=0;exitDy=0;entryX=0.5;entryY=1;entryDx=0;entryDy=0;fontSize=12;startSize=8;endSize=5;dashed=1;endArrow=halfCircle;endFill=0;" edge="1" parent="1" source="fRdf65A6xAK5P6ts9fCN-18" target="fRdf65A6xAK5P6ts9fCN-17">
          <mxGeometry relative="1" as="geometry">
            <mxPoint x="220" y="343" as="sourcePoint" />
            <mxPoint x="220" y="312" as="targetPoint" />
          </mxGeometry>
        </mxCell>
        <mxCell id="fRdf65A6xAK5P6ts9fCN-20" style="edgeStyle=none;curved=0;rounded=0;orthogonalLoop=1;jettySize=auto;html=1;exitX=1;exitY=0.5;exitDx=0;exitDy=0;fontSize=12;startSize=8;endSize=5;dashed=1;endArrow=none;endFill=0;" edge="1" parent="1" source="fRdf65A6xAK5P6ts9fCN-3">
          <mxGeometry relative="1" as="geometry">
            <mxPoint x="419" y="213" as="sourcePoint" />
            <mxPoint x="410" y="180" as="targetPoint" />
            <Array as="points">
              <mxPoint x="310" y="224" />
              <mxPoint x="310" y="180" />
            </Array>
          </mxGeometry>
        </mxCell>
      </root>
    </mxGraphModel>
  </diagram>
</mxfile>
